#N canvas 173 60 760 347 10;
#X obj 75 31 notein;
#X floatatom 57 88 5 0 0 0 - - -, f 5;
#X floatatom 96 82 5 0 0 0 - - -, f 5;
#X floatatom 160 87 5 0 0 0 - - -, f 5;
#X floatatom 199 81 5 0 0 0 - - -, f 5;
#X obj 178 30 ctlin;
#X msg 59 220 \; pd midi-dialog 1 0 0 0 0 0 0 0 0 0 0 0 0 0 0 0 0 0
0 0;
#X obj 54 130 loadbang;
#X obj 49 174 del 4000;
#X obj 259 109 print;
#X obj 257 75 pack 0 0;
#X obj 357 30 ctlin 16;
#X floatatom 354 70 5 0 0 0 - - -, f 5;
#X obj 467 39 notein;
#X obj 473 103 swap;
#X obj 499 137 == 61;
#X obj 471 167 spigot;
#X floatatom 472 198 5 0 0 0 - - -, f 5;
#X connect 0 0 1 0;
#X connect 0 1 2 0;
#X connect 5 0 3 0;
#X connect 5 0 10 0;
#X connect 5 1 4 0;
#X connect 5 1 10 1;
#X connect 7 0 8 0;
#X connect 8 0 6 0;
#X connect 10 0 9 0;
#X connect 11 0 12 0;
#X connect 13 0 14 0;
#X connect 13 1 14 1;
#X connect 14 0 16 0;
#X connect 14 1 15 0;
#X connect 15 0 16 1;
#X connect 16 0 17 0;
