#N canvas 31 134 1198 608 10;
#X obj 194 130 tabwrite~ record;
#X msg 269 55 bang;
#X msg 298 83 stop;
#X obj 120 88 vu 15 80 empty empty -1 -8 0 8 -66577 -1 1 0;
#X floatatom 63 151 5 0 0 0 - - -, f 5;
#X obj 63 105 env~;
#X obj 63 128 - 101;
#X obj 617 28 loadbang;
#X obj 615 61 del 4000;
#X msg 613 97 \; pd dsp 1;
#X obj 192 158 table record;
#X msg 699 66 \; record resize 441000;
#X obj 956 144 tgl 15 0 empty empty empty 17 7 0 10 -262144 -1 -1 0
1;
#X obj 908 199 sel 0 1;
#X obj 903 227 bng 15 250 50 0 empty empty empty 17 7 0 10 -262144
-1 -1;
#X obj 942 230 bng 15 250 50 0 empty empty empty 17 7 0 10 -262144
-1 -1;
#X obj 1003 198 metro 1;
#X obj 1003 303 i;
#X floatatom 1000 342 5 0 0 0 - - -, f 5;
#X obj 1039 303 + 1;
#X obj 1031 264 t 0;
#X obj 863 267 s stoprec;
#X obj 937 266 s startrec;
#X obj 1015 229 r stoprec;
#X obj 330 18 r startrec;
#X obj 346 53 r stoprec;
#X obj 920 347 i;
#X obj 915 295 r stoprec;
#X obj 921 381 s rec-dur;
#X obj 332 309 tabread4~ record;
#X obj 510 194 r startrec;
#X obj 571 229 r stoprec;
#X obj 524 359 vu 15 80 empty empty -1 -8 0 8 -66577 -1 1 0;
#X floatatom 467 422 5 0 0 0 - - -, f 5;
#X obj 467 376 env~;
#X obj 467 399 - 101;
#X obj 322 229 phasor~;
#X obj 328 279 *~;
#X obj 411 154 r rec-dur;
#X floatatom 89 263 5 0 0 0 - - -, f 5;
#X obj 165 366 * 1;
#X obj 90 299 / 100;
#X obj 118 329 t b f;
#X obj 79 204 loadbang;
#X msg 88 236 100;
#X obj 162 231 r rec-dur;
#X obj 189 311 print;
#X obj 301 357 vu 15 80 empty empty -1 -8 0 8 -66577 -1 1 0;
#X floatatom 244 420 5 0 0 0 - - -, f 5;
#X obj 244 374 env~;
#X obj 244 397 - 101;
#X obj 439 330 line~;
#X obj 512 301 pack 0 10;
#X obj 385 368 *~;
#X floatatom 684 238 5 0 0 0 - - -, f 5;
#X obj 569 261 1;
#X msg 510 260 0;
#X obj 841 383 print;
#X floatatom 269 193 5 0 0 0 - - -, f 5;
#X floatatom 388 255 5 0 0 0 - - -, f 5;
#X floatatom 164 405 5 0 0 0 - - -, f 5;
#X obj 167 278 expr 1000/$f1;
#X obj 406 187 expr $f1 * 44.1;
#X obj 344 138 r stoprec;
#X obj 342 170 0;
#X obj 185 5 adc~ 1;
#X obj 195 35 *~ 1;
#X floatatom 240 3 5 0 0 0 - - -, f 5;
#X obj 377 504 lop~ 22000;
#X obj 376 536 dac~;
#X floatatom 427 466 5 0 0 0 - - -, f 5;
#X connect 1 0 0 0;
#X connect 2 0 0 0;
#X connect 4 0 3 0;
#X connect 5 0 6 0;
#X connect 6 0 4 0;
#X connect 7 0 8 0;
#X connect 7 0 11 0;
#X connect 8 0 9 0;
#X connect 12 0 13 0;
#X connect 12 0 16 0;
#X connect 13 0 14 0;
#X connect 13 1 15 0;
#X connect 14 0 21 0;
#X connect 15 0 22 0;
#X connect 16 0 17 0;
#X connect 17 0 18 0;
#X connect 17 0 19 0;
#X connect 17 0 26 1;
#X connect 19 0 17 1;
#X connect 20 0 17 1;
#X connect 23 0 20 0;
#X connect 24 0 1 0;
#X connect 25 0 2 0;
#X connect 26 0 28 0;
#X connect 26 0 57 0;
#X connect 27 0 26 0;
#X connect 29 0 49 0;
#X connect 29 0 53 0;
#X connect 30 0 56 0;
#X connect 31 0 55 0;
#X connect 33 0 32 0;
#X connect 34 0 35 0;
#X connect 35 0 33 0;
#X connect 36 0 37 0;
#X connect 37 0 29 0;
#X connect 38 0 62 0;
#X connect 39 0 41 0;
#X connect 40 0 36 0;
#X connect 40 0 60 0;
#X connect 41 0 42 0;
#X connect 42 0 40 0;
#X connect 42 1 40 1;
#X connect 43 0 44 0;
#X connect 44 0 39 0;
#X connect 45 0 61 0;
#X connect 48 0 47 0;
#X connect 49 0 50 0;
#X connect 50 0 48 0;
#X connect 51 0 53 1;
#X connect 52 0 51 0;
#X connect 53 0 34 0;
#X connect 53 0 68 0;
#X connect 55 0 52 0;
#X connect 56 0 52 0;
#X connect 58 0 36 0;
#X connect 61 0 40 0;
#X connect 61 0 46 0;
#X connect 62 0 59 0;
#X connect 62 0 37 1;
#X connect 63 0 64 0;
#X connect 64 0 36 1;
#X connect 65 0 66 0;
#X connect 66 0 0 0;
#X connect 66 0 5 0;
#X connect 67 0 66 1;
#X connect 68 0 69 0;
#X connect 68 0 69 1;
#X connect 70 0 68 1;
